<?xml version="1.0" encoding="UTF-8"?>
<svg id="Livello_2" xmlns="http://www.w3.org/2000/svg" version="1.1" viewBox="0 0 225 225">
  <!-- Generator: Adobe Illustrator 30.4.0, SVG Export Plug-In . SVG Version: 2.1.4 Build 226)  -->
<path d="M126,225h-6s-3.1-2.8-3.1-2.8c-.6-.5-2.2-3-1.5-3.3l3.1-1.3c.6-.2,1.3,1.5,1.8,2.4,1.2,2.1,5.8,1.8,6.6-1.3-3.1-4.9-12.2-1.4-11.7-9.2.2-2.2,2.7-4.1,5.2-4.6,4.7-1,8.1.6,10.4,5.1,2.2-4.6,4.1-6.7,7.6-7.9,2.6-.9,7.2.4,8.9,2.3.4.5-.8,2.5-1.4,2.3l-2.6-.7c-1.5-.4-5-.5-6.2.5-2.6,2.2-1.1,9.4,2.5,11.2,1.4.7,4.7-.3,5.4-1.4l1.7-2.9c.4-.6,3,.2,3.7.6-1,5.8-5.9,7.7-11.1,7.2-4.7-.5-7.4-5.1-7.8-10.5l-4.7-.4-3.8-2.1c-1-.5-3.6.8-4.8,2.4l9,2.6c1.5.4,4,3.2,4.1,4.8.1,1.5-1.2,4.2-2.4,5l-3,2.3h0Z"/>
  <path d="M112,0h-7c-5.8,3.1-8.3,10.3-4.1,16.5,3.2,4.7,12.1,4.8,15.3,0,4.1-6.1,1.3-13.4-4.2-16.5ZM108.5,16.7c-3.3,0-5.5-2.7-5.4-6.8,0-3,1.9-5.8,4.3-6.2,3.5-.5,6.2,1.4,6.5,5.7.3,4.5-1.8,7.3-5.4,7.2Z"/>
  <path d="M105.3,225c-.5,0-1.8-.4-2.3-.5l-12.8-2.3,2.6-18.9,14.5,1.9v3.2c0,0-8-.9-8-.9-.8,0-2.5.7-3.1,1.1s.4,2.6,1.1,2.8l9.3,1.6c-1.9,4.7-5.3,1.6-7.3,1.9l-4.1.5c-.9.1.1,4.1,1,4.3l9.5,1.6-.3,3.7h0Z"/>
  <path d="M19,125.4c-.1-.9-2.1-1.6-3.4-2.2-1.9-.9-2.6-6.8-.8-8,2.3-1.5,5.4-1.6,3.7-6.1l-14.8,6.9L0,117v6l19.5,5.6s-.4-3.2-.4-3.2ZM6.1,121.8c-1.2,0-2.1-.9-2.1-2.1s.9-2.1,2.1-2.1,2.1.9,2.1,2.1-.9,2.1-2.1,2.1Z"/>
  <path d="M0,105v-12s5.3-1.5,5.3-1.5c.4.6,0,3.2-.6,4l-2.8,3.2c-.5.6,1.8,3.3,2.4,3.5,3.7-4.8,4.9-12.1,10.5-10.3,3.1,1,4.8,4,4.8,7-.1,5.5-3.1,8.6-8.3,8.6,0-5.3,5.4-4.2,5.1-9,0-1-1.9-2.5-3.2-2.8l-5.3,8.6c-1,1.7-6,1.3-7.8.8h0Z"/>
  <path d="M225,76c-.2-.4-3-1.7-4.1-1.4l-16.2,4.5.6,3.3c.3,1.5,4.7-1.8,7.5-.5,1,3.6,3.2,7.6,6.5,8.5l5.8-1.4v-13h0ZM220,84.4c-1,0-1.9-.8-1.9-1.9s.8-1.9,1.9-1.9,1.9.8,1.9,1.9-.8,1.9-1.9,1.9Z"/>
  <path d="M225,95l-15.6,1.6v3.9c0,0,7.4-.5,7.4-.5.3,2.5.7,6.1,1.8,7.7,1.1,1.6,4.3,2.8,6.4,3.3v-16h0ZM222.8,104.9c-1,0-1.9-.8-1.9-1.9s.8-1.9,1.9-1.9,1.9.8,1.9,1.9-.8,1.9-1.9,1.9Z"/>
  <polygon points="225 114 225 119 209.7 118.3 209.7 114.8 225 114"/>
  <path d="M206.8,168.9c-1.2-.4-4.1-.2-5.2.5l-7.7,4.6c-2.8-5.9,4-4.3,7.1-8.6-6.1-3.3-10,1.5-11.1,6-.2,1.1-2.2,2.1-3,2.8l-13.6,12,7.5,10.4c.9,1.2-.3,4.6-1.6,5.2-1.1.5-4.1,0-4.9-1l-7.8-10.4-3,2.6,3,5c-6.1-4-14-3.1-16.8,3.3-2,4.5.2,9.4,4,12.3,3.1,2.3,8,2.2,11.7-.6,3.5-2.6,4.6-5.8,3.4-11.3l4.9,3.8c4,1.6,11.3-1.5,11.4-6.7,0-4.4-3.6-8.2-6.6-11.9l3.9-4.3,12.2,10.9,3-3.1-9.3-8.1c-1.1-1-1.7-3.7-.6-4.9.7-.8,3-1.1,4.2-.6,6.5,2.6,8.4-4,13.2-3.9,1.2,0,1.2,4.5,0,4.9l-4.9,1.6c-.7.2-2.2,1.5-2.8,2.1-.5.5,2.6,1.7,3.4,1.7,3.8,0,9.3-3.8,9.1-9.3,0-1.6-1.9-4.4-3.2-4.9h0ZM163.5,210.1c-.8,1.1-4.7,1.9-5.9,1.4-1.4-.6-3.1-2.5-3.9-4.4-1.4-3.2-.2-6.8,3-7.9,2.1-.8,5.4.5,7,3.3,1.2,2,1.6,5.4-.1,7.7Z"/>
  <path d="M77,201.6l8.3,3.1c.1-1.9.5-3.4,0-3.6l-2.3-.8-11.3-4.1-2.6,5.8c.9-9.8-10.9-13.7-11.4-13.5l-3.3,1.7,1.8-3.6-7.8-5.8-9.3,8.6c-1.3,1.2-4.6.9-5.6-.4-.8-1-.6-4,.4-5l8.7-8.6c-.7-1.6-1.2-3.4-2-3.1l-4,1.8c1.6-6.7-2.3-12.5-9.1-13.3-4.1-.5-9.7,3.2-10.8,7.4-1.8,6.6,3.4,11.9,9.1,13.6l6.6-4.4-5.2-6.8c-1.6.9-2.9,1.5-2.5,2.3l1.7,3.8c-1.8.9-5.2-1-6.1-3.6-.8-2.2.6-5.4,3-7.1,1.5-1.1,5.1-1.6,6.7-.9,4.6,1.9,2,7.2,3.1,8.3l2.8,2.5-6.9,8.2c-1.5,5.3,4.8,12.1,10.1,10,5.1-2,7.2-7.6,13-9.3l-10.2,13.4c-.5.7-.2,3.6.7,3.5,3.9-.4,6.1-8.2,12.5-11.5-2.8,5.8-4.8,8.9-7.8,14,2.9,1.9,6.9,4.4,10,5.3,5.2,1.5,7.1-3.2,11.1-5.7-1.1,3.6-2.4,7.1-3.7,10.2l14.2,5.5c.5-.3,1.1-3.1.2-3.4l-8.9-3.5c0-1.3,1.3-4.6,2.2-4.3l4.2,1.4c1.9.6,4.4,3.2,5.9-.9l-7.2-3c-1.1-.5-2.1-2.7-1.2-3.7.5-.6,2.2-.5,3-.2h0ZM58.4,206.2c-1.6,0-4.8-1.7-6-2.9l6-9.7c1.3-.4,3.9,1.2,5.2,2.7,2.4,2.8-2.1,10-5.2,10h0Z"/>
  <path d="M89,19.1l-10.6,3.4,4.8-12.9c.5-1.2.2-4.3,0-5.3l-13.9,4.4,1,3.1,8.3-2.3-5.6,16.9-15-10.8c-.7-.5-3.8.3-4.1,1.1-.3.8-.2,1.8,0,3.3l3,16.9c1.8-.8,3.4-1.3,3.3-2l-.4-4.4,6.7-3.8,3.5,2.6,19.7-7.3s-.8-2.9-.9-2.9ZM58.3,22.3c-1,0-1.9-.8-1.9-1.9s.8-1.9,1.9-1.9,1.9.8,1.9,1.9-.8,1.9-1.9,1.9Z"/>
  <path d="M137.3,22.7c-2.1-.8-4.1-2.3-4.8-3.7l-4.1-8.6c-3.2,4.2-1.9,9.5-3.1,9.5h-2.7c-.6-.1-.4-2.1-.2-3.1l2.3-14.4c.1-.7,2.1-1.8,2.8-1.5.8.4,2.1,1.9,2.6,2.9l4.7,10.2,2.3-11.5,3.8.2s-3.5,19.9-3.5,19.9Z"/>
  <path d="M32.5,57c-2.6-4.9-8.7-7.8-13.5-5.9-3.3,1.3-5.9,4.8-6.5,7.8-.6,3.3,1.6,6.9,4.6,8.9,3.7,2.6,8.4,3.2,12.1.2,2.5-2,5.4-6.8,3.2-11ZM26.1,65.9c-1.7.4-4.7-.3-6.5-1.4-3-1.8-4.6-5.4-2.2-8.3,1.1-1.4,4.8-2,6.8-1.4,1.8.6,4.5,2.5,5.3,5.9.4,1.7-1.9,4.9-3.3,5.2Z"/>
  <path d="M158.2,20l-9.4-3.1-1.9,4.6,9.6,3.8c.5.4-.9,3-1.6,2.7l-13.1-4.8,7.1-17.9,13.6,4.9-.6,3.3-10.8-3.8c-1.8,5.1,1.7,5.3,4.3,6l2.7.8c.6.2.5,1.4.1,3.4h0Z"/>
  <path d="M14.1,88.1c.5-3.4,3.2-2.8,6-5.8.8-.8-.2-4-1.3-5.2-1.8,1.1-3.8,3.1-4.9,4.9-2.1,3.3-5.7,5.1-9.3,1.9-1.5-1.4-1.5-5.8-.4-7.9,1.2-2.3,3.6-4.2,7-4.4.5.8-.4,3.2-1.2,3.9l-3,2.3c-.7.5.5,4,1.2,4,4.3-3.2,7.1-10.9,12.9-7.4,3.4,2,3.8,5.6,2.2,9.1-1.8,3.9-4.9,6.3-9.2,4.7h0Z"/>
  <path d="M218.9,63l1.7,3.9-14.4,6.4c-2.1.9-5.6-1.6-6.8-3.3-1.3-1.9-3.1-6.9-1.2-8.5,4.7-3.9,9.2-5.8,15.2-8.7l.9,3.9-12.2,6.3c-1.1.6-.8,4.5,0,5.2s3.4,1.2,4.4.7l12.3-5.9h0Z"/>
  <path d="M42.8,44v-3.8c-.2-.7,1.9-1,2.5-.7s1.4,1.8,1.5,2.6c.4,4-2.1,7.6-5.3,8.9-3.4,1.4-7.6.4-10.5-1.9-3.6-2.9-4.7-7.1-3-11.6,1.3-3.6,6.5-5.4,10.7-4.5-.2,1.5-.3,3.1-1,3.2l-4.1.6c-1.3.2-3,3.1-2.7,4.6.8,3.6,5.1,7,8.5,6.9,1.4,0,3.5-2.8,3.5-4.2h0Z"/>
  <polygon points="96.5 21.1 92.4 21.7 88.3 3 92.3 2.5 96.5 21.1"/>
  <polygon points="52.4 41 39.9 25.5 43.8 24.3 55.7 38.5 52.4 41"/>
  <path d="M16.6,136.9l1.4,4.2c.2.6.2,1.9.1,2.5s-2.6,1.7-2.9,1.2l-1.5-3.1c-.4-.9-.5-3.4-.3-4.2s3.8-.8,3.1-.4h0Z"/>
  <rect x="210.9" y="131.9" width="7.4" height="4.1" transform="translate(51.7 327.5) rotate(-81.9)"/>
  <path d="M204.6,42.4l-6.6-8.2-15.2,12.5,2.4,3,7.3-5.3c2.3,6.9-4.6,13.6,1.9,15.2l2.6-9.1c2.7,1.1,5.5,1,7.2-.7,1.9-1.9,1.9-5.4.3-7.4h0ZM201.2,47.1c-.8,1-3.9-.6-4.6-1.4l-2-2.3c-.5-.6,1.8-2.8,2.7-3,2.3-.4,5.8,4.4,3.9,6.7h0Z"/>
  <path d="M180,36.4c-.7-1.4-1.6-1.9-2.1-2.9-.4,0,1.7-2.6,2.2-2.3l6.3,4.9c-1.8,2.5-3.8,4.8-6.1,6.5-3.1-.6-7.3-2.9-9.4-5.4-2.8-3.4-2.1-8.8.7-11.8s7-4.9,11.6-3.1c3.4,1.3,7.3,5.5,6,10.2-4.4,1.7-3.1-6-7.6-7.1-1.9-.5-5.5.9-6.6,2.5-1.5,2.2-1.9,4.6-1.6,6.6,1.2,2.5,3.7,4.1,6.7,2h0Z"/>
  <path d="M194.7,70.2c-15.6-28-44.7-44.8-76.7-46.3-49.9-2.2-94.2,35.8-95.2,86-.7,35.3,20.4,67.1,52.8,81.5,22.7,10.1,48.5,11,72.3,1.9,50.4-19.1,72.6-76.6,46.7-123.2ZM114.2,199.3c-48.4,0-87.6-39.2-87.6-87.6S65.8,24.1,114.2,24.1s87.6,39.2,87.6,87.6-39.2,87.6-87.6,87.6Z"/>
  <path d="M176.7,82.6c-10.7-2-19.5,1.3-29.3,7.8,3-11.2,9.4-18.8,7.9-30.3-1.2-9.5-9.9-15.1-19.4-14.2-14.9,1.3-29.6,1.7-44.1-.6-11.7,1.2-19,10.1-16.9,21.7,1.3,7.4,5,14.4,7.7,22.7-13.3-6.7-29.5-10.1-36.2.2-3.2,4.9-2.7,9.5-1.3,15.4,2.3,10.2-3.1,25.3,3.3,31.3,6,5.7,14.4,5.2,21.4,2.1,12.8-5.6,25.1-6.6,34.3,4.2-2.4,6-4.4,10.7-7.1,16.5l11,8.8c1.1.9.4,5.7-.9,5.4l-12.2-3.1-8.6,1.1c-7.3-.6-12.4-3.8-19.7-7.4-.4,1.9-.2,4.7.9,6.6l6.4,11.7c1.2.7,4.2-2.3,5.6-2.6,18.4-3.7,23.8,1.8,30.3,3.4,3.7.9,8.1,0,12.6-.7,5-.7,10.7-.2,15-1.4,3.9-1.1,6.9-3,9.7,1.5,10.9.3,4.1-12.2,12.8-16.3l-9.6-2.9c.3,3.9-1.7,6.6-5.5,7.4l-21.8,4.4c-1.7.3-2.9-5.6-1.4-6.5l11.5-7.1c-2.9-6.4-5.3-12.8-6.5-19.6,6.7-8.6,20.3-7.5,30.8-2,6.3,3.3,13.2,5.5,20.1,3.1,10.1-3.5,3.7-18.6,11.1-41.3,2.9-9-2.6-17.3-11.5-19ZM143.1,48.3c8.7,3.2,12,11.7,9.9,20.6-2.9,7.8-5.6,15.2-10,23.8-.9-14.3-4.6-25.3-16.3-32.5-3.9-3.1-7.7-5.9-10.9-10.5,10.4-1.7,18.3-2,27.2-1.4ZM116.9,106.8l.4-50.8c16.4,9,26.6,22.9,21.8,39.9-2.4,8.4-12.6,12.4-16.4,26.8-.3,1.2-3.8,2.2-4.4,1.4-1.6-2.1-1.6-6.8-.7-9.5.3-.9,2.8-1,4.1-1.2v-6.3c.1,0-4.8-.3-4.8-.3ZM153.1,95.2c7.4-4.1,14.8-3.4,21.5,1.3,3.9,2.8,7.6,7,6.2,12.2-2.2,8.6-9.2,15.7-18.3,18.1-.9-4.3-1.4-8.1-3.1-10.4-5.5-7.4-18.6-2.1-29.1,2.7,4.4-10.6,13.2-18.7,22.8-23.9ZM114,50h1v55.5h-1v-55.5ZM76.8,67c-.5-7.4,1.4-16.2,9.4-18.1,8.4-2,17.1-.8,26.5,1-3.4,4.8-7.4,7.9-11.6,11.1-9.9,7-13.3,16.7-14.2,30.4-4.3-7.4-7.7-15.6-10.1-24.4ZM107.6,109.9v3.1c.2.7,2,.9,3.2,1.1v10s-3.3-.5-3.3-.5c-2.2-12.4-13.5-18.6-16.2-25.8-6.6-17.7,4.7-33.1,20.1-41.8v50.7c0,0-3.5.7-3.5.7-.6,0-.4,2-.4,2.6h0ZM70.9,124.8c-7.9,0-17-5.1-19-13.8-1.7-6.9.4-15,7.1-18.3,10.3-5.1,35.4,10.8,41.8,25.4-7.4-3.7-12.5-8.4-20.8-7.3-2.9.4-6.8,2-8.1,3.7-1.8,2.5-1.7,6.3-1.1,10.2ZM103.7,139c-9.4-7.9-20.9-8.1-31.5-3.5-5.1,2.2-10.7,3.8-16.2,2.8-14.1-2.5-6.8-19.9-8.8-32.9-.8-5.4-2.4-9.6.6-14.1,7.5-11.4,24.2-5.7,37.2,3.5,2.2,1.5,4.2,2.2,4.2,5.7-9.6-6.2-22.7-13.4-31.4-9.3-8.1,3.8-10.8,14.7-7.4,22.6,4.2,9.9,14.7,13.9,24.1,13.1-1.6-3.3-2.5-6.4-1.8-9.2,1.5-6.1,15.9-7.2,24.7,2.2l-4.8,1.4v10.2c0,0,12.3-1.3,12.3-1.3-.2,2.9-.6,6.2-1.3,8.9ZM99.8,158.9l7-18.6.9,4.9c.2.8,1.7,1,3.9,1.5l-.4,21.5-11.4-9.2ZM144.2,173c4.1-.6,5.9-3.3,9.8-7l-2.8,12.6c-.1.7-2.4,2.8-2.9,2.3l-2.1-2.3c-3.1-3.2-7.4,0-10.9.9-3.1.8-7.8,0-11.3.5-4.7.7-8.9,2-13,1.3-4-.7-8.7-4-12.4-4.2-8.6-.6-23.1-1.2-23.6,3.3l-5.8-12.1c9.8,5.1,16.3,5.3,26.1,4.2,14.4,5.8,15.9-.1,15.6-.1l2.5.2,1.1-25.6.8,25.8,2.4-1.7c1.4-1,1.2,5.4,2.6,6.1,1.8.8,13.5-2.5,23.9-4.1h0ZM129.7,160.9l-12.5,7.6-.4-21.9,3.8-1.3,1.4-6-3.7-.4c-1.4-.2-2.1-6.8.1-8.6,1-.8,4.3.6,4.4,2.2,1,9.2,3.4,18.8,6.9,28.3h0ZM181.6,132.2c-.1,2.5-1.7,6.3-3.3,7.7-11.3,10.1-29.3-16.4-52.2-1.7-1.2-2.6-.7-6.9.8-8,4.2,1.9,5.9,2.6,9.5,2.5v-10.4c.1,0-2.9-1.8-2.9-1.8,8.6-5.1,20.3-8.9,24.8-2,1.9,2.9,1.8,7.2.2,10.3,11.1.6,16.9-6.5,24.1-15.7l-.9,19h0ZM183.5,109.1c-.4-12.2-10.9-19-23.4-18.7l-14.1,5.5c7.1-9.1,19.1-13.8,30.7-11.2,5.3,1.2,9.5,4.6,9.8,10.2.3,5-1.1,9.9-3.1,14.1Z"/>
</svg>